name D:\school\WTK\thesis\model\3dpredictsim\Results\Batchsim_tmt_linear\Pog_s1_tmt_bCst_d00_k800_ig24.mot
datacolumns 128
datarows 4
range 0.00000000 0.03234026
endheader
time	pelvis_tilt	pelvis_list	pelvis_rotation	pelvis_tx	pelvis_ty	pelvis_tz	hip_flexion_l	hip_adduction_l	hip_rotation_l	hip_flexion_r	hip_adduction_r	hip_rotation_r	knee_angle_l	knee_angle_r	ankle_angle_l	ankle_angle_r	subtalar_angle_l	subtalar_angle_r	tmt_angle_l	tmt_angle_r	mtp_angle_l	mtp_angle_r	lumbar_extension	lumbar_bending	lumbar_rotation	arm_flex_l	arm_add_l	arm_rot_l	arm_flex_r	arm_add_r	arm_rot_r	elbow_flex_l	elbow_flex_r	pro_sup_l	pro_sup_r	glut_med1_l/activation	glut_med2_l/activation	glut_med3_l/activation	glut_min1_l/activation	glut_min2_l/activation	glut_min3_l/activation	semimem_l/activation	semiten_l/activation	bifemlh_l/activation	bifemsh_l/activation	sar_l/activation	add_long_l/activation	add_brev_l/activation	add_mag1_l/activation	add_mag2_l/activation	add_mag3_l/activation	tfl_l/activation	pect_l/activation	grac_l/activation	glut_max1_l/activation	glut_max2_l/activation	glut_max3_l/activation	iliacus_l/activation	psoas_l/activation	quad_fem_l/activation	gem_l/activation	peri_l/activation	rect_fem_l/activation	vas_med_l/activation	vas_int_l/activation	vas_lat_l/activation	med_gas_l/activation	lat_gas_l/activation	soleus_l/activation	tib_post_l/activation	flex_dig_l/activation	flex_hal_l/activation	tib_ant_l/activation	per_brev_l/activation	per_long_l/activation	per_tert_l/activation	ext_dig_l/activation	ext_hal_l/activation	ercspn_l/activation	intobl_l/activation	extobl_l/activation	glut_med1_r/activation	glut_med2_r/activation	glut_med3_r/activation	glut_min1_r/activation	glut_min2_r/activation	glut_min3_r/activation	semimem_r/activation	semiten_r/activation	bifemlh_r/activation	bifemsh_r/activation	sar_r/activation	add_long_r/activation	add_brev_r/activation	add_mag1_r/activation	add_mag2_r/activation	add_mag3_r/activation	tfl_r/activation	pect_r/activation	grac_r/activation	glut_max1_r/activation	glut_max2_r/activation	glut_max3_r/activation	iliacus_r/activation	psoas_r/activation	quad_fem_r/activation	gem_r/activation	peri_r/activation	rect_fem_r/activation	vas_med_r/activation	vas_int_r/activation	vas_lat_r/activation	med_gas_r/activation	lat_gas_r/activation	soleus_r/activation	tib_post_r/activation	flex_dig_r/activation	flex_hal_r/activation	tib_ant_r/activation	per_brev_r/activation	per_long_r/activation	per_tert_r/activation	ext_dig_r/activation	ext_hal_r/activation	ercspn_r/activation	intobl_r/activation	extobl_r/activation	
          0.00000000	         -2.93017341	         -2.11134222	          5.28963546	          0.00000000	          0.85898455	         -0.00238814	        -18.16375794	         -1.51285494	          7.33635303	         32.06148965	          2.81301983	         -2.16927027	         -5.66253697	        -15.52197539	          1.18492818	          7.15492758	          9.86753091	         -2.30786673	          1.28779598	          0.03831089	         20.42262902	         -0.13304197	         -2.08246638	          0.42358247	         -1.84713612	          7.21111097	        -13.45044162	         16.20085860	         -8.30856441	        -13.53106596	          6.21236126	         35.59653058	         15.31992770	         86.51662706	         86.51662706	          0.33944795	          0.12029939	          0.08208243	          0.35768781	          0.25081006	          0.12832099	          0.05000042	          0.05000009	          0.05000008	          0.08255882	          0.12601303	          0.05000003	          0.05000003	          0.05000005	          0.05000015	          0.05000014	          0.36573117	          0.05000019	          0.05000020	          0.05010929	          0.05000238	          0.05000040	          0.40394569	          0.62680080	          0.05000017	          0.05000161	          0.05898354	          0.22121193	          0.05000027	          0.05000024	          0.05000025	          0.34923497	          0.47196305	          0.32096818	          0.27727513	          0.31596794	          0.40269915	          0.05000002	          0.06855021	          0.16305775	          0.05000012	          0.05000003	          0.05000012	          0.05000000	          0.05000000	          0.05000000	          0.05000040	          0.05000014	          0.05898330	          0.05000010	          0.05000013	          0.05000050	          0.06958067	          0.06958043	          0.21904433	          0.05000052	          0.05000159	          0.10670201	          0.16972348	          0.12212341	          0.12401979	          0.10013262	          0.05898323	          0.05034270	          0.10434019	          0.05898348	          0.05898366	          0.09298755	          0.05000071	          0.05729105	          0.18252585	          0.05000023	          0.05000102	          0.05000013	          0.06665709	          0.07471783	          0.05928834	          0.05000001	          0.05000003	          0.05000000	          0.05898320	          0.05898353	          0.05898350	          0.44177968	          0.35029474	          0.23889882	          0.11293221	          0.49558633	          0.20581764	          0.07372161	          0.11657350	          0.11822609	
          0.01078009	         -2.92789597	         -2.21073493	          5.58597969	          0.01592915	          0.85792383	         -0.00218562	        -18.04749598	         -1.81817652	          7.11469515	         31.53421203	          3.20389697	         -1.97785201	         -7.55856228	        -15.17869862	          0.46861702	          6.77100305	         10.83976796	         -2.77465847	          1.25007597	          0.04950506	         21.55165739	         -0.10398285	         -1.90851867	          0.64743306	         -1.92659220	          7.11987220	        -13.45755916	         16.51603388	         -9.30319598	        -13.52375823	          6.05490317	         36.67354515	         15.14140442	         86.51662706	         86.51662706	          0.28774875	          0.10197733	          0.06958097	          0.30321060	          0.21261073	          0.10877722	          0.05000077	          0.05000013	          0.05000007	          0.06998480	          0.10682083	          0.09380756	          0.09279852	          0.05000091	          0.05000145	          0.05000061	          0.31002894	          0.08507797	          0.05000047	          0.05000071	          0.05000053	          0.05000057	          0.34242321	          0.58038245	          0.05000007	          0.05000020	          0.05000016	          0.18752051	          0.08846046	          0.06885134	          0.06256317	          0.29604511	          0.40008124	          0.28116069	          0.25727599	          0.26786610	          0.34137404	          0.05000000	          0.05898348	          0.16115488	          0.05000007	          0.05000001	          0.05000006	          0.05000001	          0.05000006	          0.05000015	          0.05898338	          0.05898342	          0.05000008	          0.05898344	          0.05898343	          0.05898334	          0.05898341	          0.05898324	          0.20368911	          0.05000030	          0.05000013	          0.11799711	          0.27128605	          0.10352369	          0.12011410	          0.10236643	          0.05000008	          0.06008872	          0.08845060	          0.05000029	          0.05000028	          0.14568460	          0.05897070	          0.05000009	          0.28696427	          0.25457568	          0.13562464	          0.05237893	          0.15289052	          0.15314026	          0.13266274	          0.05401592	          0.05560815	          0.05898338	          0.05000000	          0.05000014	          0.05000013	          0.58113152	          0.36626480	          0.20251504	          0.35440289	          0.56118900	          0.30555281	          0.06249352	          0.09881890	          0.10021979	
          0.02156017	         -2.92054544	         -2.30956427	          5.85594928	          0.03218777	          0.85685060	         -0.00197512	        -17.82516379	         -2.11436431	          6.88402833	         30.89613542	          3.57314455	         -1.73217680	         -9.65468487	        -15.40359741	         -0.37489640	          6.11464235	         11.78136792	         -3.23313406	          1.18505747	          0.02147794	         22.58451496	         -0.06784997	         -1.70904472	          0.87826628	         -1.99771544	          6.93681612	        -13.46663815	         16.75313897	        -10.32195423	        -13.51750854	          5.93226899	         37.72110022	         15.01436610	         86.51662706	         86.51662706	          0.24392351	          0.08644579	          0.05898356	          0.25703047	          0.18022930	          0.09221005	          0.05000280	          0.05000048	          0.05033166	          0.05932585	          0.09055168	          0.19019393	          0.14858251	          0.07411639	          0.05898458	          0.05898415	          0.26281038	          0.08818597	          0.05003304	          0.05001146	          0.05016676	          0.05898358	          0.29027083	          0.52890454	          0.05898351	          0.05898409	          0.05898350	          0.15896042	          0.10924345	          0.15895858	          0.15815603	          0.25095627	          0.33914730	          0.23833881	          0.21809190	          0.22706920	          0.28938154	          0.05000001	          0.05000012	          0.14278283	          0.05000004	          0.05000001	          0.05000006	          0.05809970	          0.06949367	          0.05000111	          0.05000000	          0.05000004	          0.10883647	          0.05000004	          0.05000004	          0.05000005	          0.05000004	          0.05000005	          0.17266647	          0.05000003	          0.05000264	          0.10002579	          0.22996849	          0.34673064	          0.21314157	          0.11263011	          0.05000045	          0.05094094	          0.07499433	          0.07156396	          0.09292391	          0.12349636	          0.05000005	          0.06958078	          0.46301949	          0.21580282	          0.11496850	          0.06958074	          0.18450441	          0.19463303	          0.16413732	          0.05000015	          0.05949998	          0.05000001	          0.06134829	          0.06958136	          0.06958084	          0.49471686	          0.38561644	          0.23492707	          0.30042601	          0.52880302	          0.25901595	          0.05297551	          0.08376839	          0.08495592	
          0.03234026	         -2.90918301	         -2.40870476	          6.09850081	          0.04869429	          0.85576387	         -0.00177783	        -17.51697038	         -2.39982604	          6.63997306	         30.07854338	          3.87045341	         -1.45754683	        -11.89331433	        -15.83325953	         -1.38071948	          5.64650975	         12.65506734	         -3.71401395	          1.10226585	         -0.00810485	         23.45076700	         -0.18955898	         -1.49119576	          1.11454119	         -2.05774326	          6.67449155	        -13.47496666	         16.91894472	        -11.34095373	        -13.51662732	          5.87248602	         38.73679734	         14.91192217	         86.51662706	         86.51662706	          0.34512292	          0.07327977	          0.05000016	          0.36531215	          0.15277973	          0.07816612	          0.05000114	          0.05000011	          0.05000007	          0.05029038	          0.07983237	          0.16122669	          0.12595286	          0.06282821	          0.05000111	          0.05000069	          0.26609837	          0.07476244	          0.05000047	          0.05000077	          0.05000041	          0.05000035	          0.24606154	          0.49686347	          0.05000013	          0.05000071	          0.05000017	          0.13475014	          0.09260527	          0.13474858	          0.13406827	          0.21273464	          0.28749383	          0.20203887	          0.18487566	          0.19248573	          0.24530764	          0.05000002	          0.10185403	          0.18369855	          0.05000007	          0.05000012	          0.05000011	          0.06229208	          0.05890951	          0.05000002	          0.26306208	          0.26044169	          0.32172750	          0.37273066	          0.23364012	          0.20119540	          0.07524495	          0.06319183	          0.14876039	          0.08208321	          0.05898320	          0.08479150	          0.19494343	          0.29392224	          0.18067934	          0.10585704	          0.05000021	          0.05898957	          0.06974605	          0.15783506	          0.13165321	          0.10468745	          0.05740702	          0.05898339	          0.39249983	          0.18293528	          0.24166494	          0.05898333	          0.15640369	          0.16498970	          0.13913859	          0.05000054	          0.05043797	          0.05718809	          0.05200473	          0.05898390	          0.05898349	          0.58057168	          0.41880963	          0.20809180	          0.46730942	          0.60760777	          0.31514461	          0.06840779	          0.10426767	          0.07201680	
